<svg xmlns="http://www.w3.org/2000/svg" viewBox="0 0 1920 410.34"><path d="M389.57,0,318.32,265.84,230.65,0H109.93L0,410.18H100.28l76.29-284.9,93.59,284.9H379.82L489.75,0ZM1819.82,0,1709.89,410.18h100.18L1920,0Zm-1270,0L439.83,410.18H540L650,0ZM1671.29,241.78l20.44-76.28H1521.05l22-82.14h191.19L1756.6,0H1465.23L1357.75,401,1278.69,189.8h-31.12L1435.17,0H1316.92l-175.1,174.15L1188.5,0H1088.31L980.23,403.28,900.34,189.8H869.22L1056.82,0H938.57L763.47,174.15,810.15,0H710L600,410.18H700.21L759.28,189.8h35.43l72.11,220.38h211.74l59.07-220.38h35.43l72.11,220.38h404.32l22.31-83.24h-194l22.82-85.16Z" fill="#003e70"/></svg>